{
	"asset":{
		"generator":"Khronos glTF Blender I/O v4.0.44",
		"version":"2.0"
	},
	"scene":0,
	"scenes":[
		{
			"name":"Scene",
			"nodes":[
				0
			]
		}
	],
	"nodes":[
		{
			"mesh":0,
			"name":"Monkey"
		}
	],
	"meshes":[
		{
			"name":"Monkey",
			"primitives":[
				{
					"attributes":{
						"POSITION":0,
						"NORMAL":1
					},
					"indices":2
				}
			]
		}
	],
	"accessors":[
		{
			"bufferView":0,
			"componentType":5126,
			"count":503806,
			"max":[
				0.6644523739814758,
				0.5036571621894836,
				0.5746249556541443
			],
			"min":[
				-0.664452314376831,
				-0.4519054889678955,
				-0.22582559287548065
			],
			"type":"VEC3"
		},
		{
			"bufferView":1,
			"componentType":5126,
			"count":503806,
			"type":"VEC3"
		},
		{
			"bufferView":2,
			"componentType":5125,
			"count":755712,
			"type":"SCALAR"
		}
	],
	"bufferViews":[
		{
			"buffer":0,
			"byteLength":6045672,
			"byteOffset":0,
			"target":34962
		},
		{
			"buffer":0,
			"byteLength":6045672,
			"byteOffset":6045672,
			"target":34962
		},
		{
			"buffer":0,
			"byteLength":3022848,
			"byteOffset":12091344,
			"target":34963
		}
	],
	"buffers":[
		{
			"byteLength":15114192,
			"uri":"monkey_smooth.bin"
		}
	]
}
